<svg width="32" height="32" viewBox="0 0 32 32" fill="none" xmlns="http://www.w3.org/2000/svg">
<g clip-path="url(#clip0_1606_29362)">
<rect width="32" height="32" rx="5" fill="black"/>
<path d="M7.1117 7.43528C7.19044 7.33891 7.31575 7.20624 7.43832 7.19064C7.86432 7.13648 8.4382 7.15278 8.86657 7.14921L11.8051 7.12036L20.6985 7.02678L23.1953 6.99646C23.5903 6.99193 23.9883 6.97743 24.383 6.98749C24.5719 6.99236 24.7389 7.00686 24.9064 7.10047C25.1357 7.22863 25.2849 7.42313 25.354 7.67681C25.4554 8.04855 25.4008 9.29948 25.3996 9.77113L25.4007 12.9137L25.4136 20.6082C25.4201 21.6979 25.4203 22.7879 25.414 23.8778C25.4128 24.151 25.4221 24.4273 25.4206 24.6981C25.4188 25.0046 25.3198 25.2608 24.9957 25.3366C24.7324 25.4129 24.4216 25.2648 24.3535 24.9877C24.2871 24.7181 24.2489 24.4124 24.2048 24.1335L23.9476 22.5131L23.1463 17.4719L22.8823 15.7984C22.8351 15.4992 22.784 15.111 22.7185 14.8238C22.6226 15.1241 22.3362 15.7377 22.2014 16.0617L21.0262 18.8724L19.1746 23.2913C18.8889 23.9708 18.6066 24.6517 18.3205 25.3309C18.2054 25.6042 17.9703 25.7605 17.67 25.6917C17.5316 25.6602 17.4128 25.572 17.3426 25.4487C17.1786 25.1663 17.3267 24.8525 17.4007 24.5594C17.5093 24.1236 17.6202 23.6884 17.7336 23.2539L18.6503 19.6988C18.9583 18.596 19.21 17.4643 19.5112 16.358C19.667 15.7862 19.8152 15.1985 19.9566 14.6229C19.637 14.8767 19.0772 15.4204 18.758 15.7096L16.5204 17.7258L10.709 22.9696C10.1461 23.4798 9.56351 23.9881 9.00666 24.5022C8.71128 24.7785 8.4127 25.0514 8.11072 25.3205C7.92644 25.4828 7.71136 25.7238 7.46005 25.7433C7.31323 25.7545 7.16833 25.7064 7.05786 25.6097C6.49922 25.1295 7.2473 24.5357 7.57972 24.1614L8.47822 23.1377L11.9433 19.2256L16.693 13.8531C17.0723 13.4326 17.479 12.9254 17.862 12.5241C17.514 12.6512 16.6897 12.8469 16.3076 12.9495L13.1943 13.7878L9.3844 14.8097L8.14325 15.1442C7.84603 15.2243 7.3709 15.408 7.0872 15.2841C6.97207 15.2346 6.88229 15.1403 6.8386 15.0228C6.70946 14.6851 6.85497 14.4164 7.17144 14.2816C7.4576 14.1597 7.74366 14.0349 8.03009 13.9133L9.25274 13.384L13.431 11.582L16.268 10.3604C16.6086 10.2139 17.3221 9.87863 17.6458 9.77866C17.4372 9.72865 17.0194 9.67994 16.7889 9.64536L15.0991 9.39071L9.54521 8.55553L8.23294 8.36024C7.85063 8.30319 7.19829 8.29858 7.05961 7.87324C7.00636 7.7099 7.038 7.58278 7.1117 7.43528Z" fill="url(#nbGrad)"/>
</g>
<defs>
<linearGradient id="nbGrad" x1="0" y1="0" x2="32" y2="32" gradientUnits="userSpaceOnUse">
<stop stop-color="#6652f2"/>
<stop offset="1" stop-color="#21c7ba"/>
</linearGradient>
<clipPath id="clip0_1606_29362">
<rect width="32" height="32" rx="5" fill="white"/>
</clipPath>
</defs>
</svg>
